<?xml version="1.0" encoding="UTF-8"?>
<svg width="3300px" height="2200px" viewBox="0 0 3300 2200" version="1.1" xmlns="http://www.w3.org/2000/svg" xmlns:xlink="http://www.w3.org/1999/xlink">
    <title>SF Icon</title>
    <g id="Page-1" stroke="none" stroke-width="1" fill="none" fill-rule="evenodd">
        <g id="w">
            <g id="Notes">
                <rect id="artboard" fill="#FFFFFF" fill-rule="nonzero" x="0" y="0" width="3300" height="2200"></rect>
                <line x1="263" y1="292" x2="3036" y2="292" id="Path" stroke="#000000" stroke-width="0.5"></line>
                <text id="Weight/Scale-Variations" fill="#000000" fill-rule="nonzero" font-family="Helvetica" font-size="13" font-weight="normal">
                    <tspan x="263" y="322">Weight/Scale Variations</tspan>
                </text>
                <text id="Ultralight" fill="#000000" fill-rule="nonzero" font-family="Helvetica" font-size="13" font-weight="normal">
                    <tspan x="533.711" y="322">Ultralight</tspan>
                </text>
                <text id="Thin" fill="#000000" fill-rule="nonzero" font-family="Helvetica" font-size="13" font-weight="normal">
                    <tspan x="843.422" y="322">Thin</tspan>
                </text>
                <text id="Light" fill="#000000" fill-rule="nonzero" font-family="Helvetica" font-size="13" font-weight="normal">
                    <tspan x="1138.63" y="322">Light</tspan>
                </text>
                <text id="Regular" fill="#000000" fill-rule="nonzero" font-family="Helvetica" font-size="13" font-weight="normal">
                    <tspan x="1426.84" y="322">Regular</tspan>
                </text>
                <text id="Medium" fill="#000000" fill-rule="nonzero" font-family="Helvetica" font-size="13" font-weight="normal">
                    <tspan x="1723.06" y="322">Medium</tspan>
                </text>
                <text id="Semibold" fill="#000000" fill-rule="nonzero" font-family="Helvetica" font-size="13" font-weight="normal">
                    <tspan x="2015.77" y="322">Semibold</tspan>
                </text>
                <text id="Bold" fill="#000000" fill-rule="nonzero" font-family="Helvetica" font-size="13" font-weight="normal">
                    <tspan x="2326.48" y="322">Bold</tspan>
                </text>
                <text id="Heavy" fill="#000000" fill-rule="nonzero" font-family="Helvetica" font-size="13" font-weight="normal">
                    <tspan x="2618.19" y="322">Heavy</tspan>
                </text>
                <text id="Black" fill="#000000" fill-rule="nonzero" font-family="Helvetica" font-size="13" font-weight="normal">
                    <tspan x="2917.4" y="322">Black</tspan>
                </text>
                <line x1="263" y1="1903" x2="3036" y2="1903" id="Path" stroke="#000000" stroke-width="0.5"></line>
                <g id="Group" transform="translate(264.367190, 1918.068400)" fill="#000000" fill-rule="nonzero">
                    <path d="M7.88086,15.761678 C12.18751,15.761678 15.77151,12.18746 15.77151,7.88082 C15.77151,3.5742 12.17771,0 7.87109,0 C3.57422,0 -8.8817842e-16,3.5742 -8.8817842e-16,7.88082 C-8.8817842e-16,12.18746 3.58398,15.761678 7.88086,15.761678 Z M7.88086,14.277303 C4.33593,14.277303 1.5039,11.43551 1.5039,7.88082 C1.5039,4.3261 4.32617,1.4843 7.87109,1.4843 C11.42581,1.4843 14.27731,4.3261 14.27731,7.88082 C14.27731,11.43551 11.43551,14.277303 7.88086,14.277303 Z M4.28711,7.88082 C4.28711,8.31051 4.58984,8.60348 5.03906,8.60348 L7.13867,8.60348 L7.13867,10.72262 C7.13867,11.16207 7.43164,11.4648 7.86133,11.4648 C8.31054,11.4648 8.60351,11.16207 8.60351,10.72262 L8.60351,8.60348 L10.72261,8.60348 C11.16211,8.60348 11.46481,8.31051 11.46481,7.88082 C11.46481,7.44137 11.16211,7.13863 10.72261,7.13863 L8.60351,7.13863 L8.60351,5.02926 C8.60351,4.58 8.31054,4.2773 7.86133,4.2773 C7.43164,4.2773 7.13867,4.58 7.13867,5.02926 L7.13867,7.13863 L5.03906,7.13863 C4.58984,7.13863 4.28711,7.44137 4.28711,7.88082 Z" id="Shape"></path>
                </g>
                <g id="Group" transform="translate(283.615050, 1915.988300)" fill="#000000" fill-rule="nonzero">
                    <path d="M9.96095,19.92186 C15.41015,19.92186 19.92185,15.40037 19.92185,9.96092 C19.92185,4.5117 15.40035,0 9.95115,0 C4.51172,0 8.8817842e-16,4.5117 8.8817842e-16,9.96092 C8.8817842e-16,15.40037 4.52148,19.92186 9.96095,19.92186 Z M9.96095,18.2617 C5.35156,18.2617 1.66992,14.57029 1.66992,9.96092 C1.66992,5.3515 5.34179,1.6601 9.95115,1.6601 C14.56055,1.6601 18.26175,5.3515 18.26175,9.96092 C18.26175,14.57029 14.57035,18.2617 9.96095,18.2617 Z M5.42968,9.96092 C5.42968,10.43943 5.76172,10.7617 6.25976,10.7617 L9.13085,10.7617 L9.13085,13.64256 C9.13085,14.13084 9.46285,14.47264 9.94145,14.47264 C10.42965,14.47264 10.77145,14.14061 10.77145,13.64256 L10.77145,10.7617 L13.65235,10.7617 C14.14065,10.7617 14.48245,10.43943 14.48245,9.96092 C14.48245,9.47264 14.14065,9.13084 13.65235,9.13084 L10.77145,9.13084 L10.77145,6.2597 C10.77145,5.7617 10.42965,5.4199 9.94145,5.4199 C9.46285,5.4199 9.13085,5.7617 9.13085,6.2597 L9.13085,9.13084 L6.25976,9.13084 C5.76172,9.13084 5.42968,9.47264 5.42968,9.96092 Z" id="Shape"></path>
                </g>
                <g id="Group" transform="translate(307.901860, 1913.224600)" fill="#000000" fill-rule="nonzero">
                    <path d="M12.71484,25.43946 C19.67774,25.43946 25.43944,19.6777438 25.43944,12.72462 C25.43944,5.7617 19.66794,0 12.70504,0 C5.75195,0 0,5.7617 0,12.72462 C0,19.6777438 5.76172,25.43946 12.71484,25.43946 Z M12.71484,23.62306 C6.67969,23.62306 1.82617,18.75978 1.82617,12.72462 C1.82617,6.6797 6.66992,1.8262 12.70504,1.8262 C18.75004,1.8262 23.61324,6.6797 23.61324,12.72462 C23.61324,18.75978 18.75974,23.62306 12.71484,23.62306 Z M6.94336,12.72462 C6.94336,13.2422 7.31445,13.60352 7.86134,13.60352 L11.80664,13.60352 L11.80664,17.5586 C11.80664,18.09571 12.17774,18.47657 12.69534,18.47657 C13.23244,18.47657 13.60354,18.10548 13.60354,17.5586 L13.60354,13.60352 L17.55864,13.60352 C18.09574,13.60352 18.47654,13.2422 18.47654,12.72462 C18.47654,12.17774 18.10544,11.80665 17.55864,11.80665 L13.60354,11.80665 L13.60354,7.8613 C13.60354,7.3145 13.23244,6.9336 12.69534,6.9336 C12.17774,6.9336 11.80664,7.3145 11.80664,7.8613 L11.80664,11.80665 L7.86134,11.80665 C7.31445,11.80665 6.94336,12.17774 6.94336,12.72462 Z" id="Shape"></path>
                </g>
                <text id="Design-Variations" fill="#000000" fill-rule="nonzero" font-family="Helvetica" font-size="13" font-weight="normal">
                    <tspan x="263" y="1953">Design Variations</tspan>
                </text>
                <text id="Symbols-are-supported-in-up-to-nine-weights-and-three-scales." fill="#000000" fill-rule="nonzero" font-family="Helvetica" font-size="13" font-weight="normal">
                    <tspan x="263" y="1971">Symbols are supported in up to nine weights and three scales.</tspan>
                </text>
                <text id="For-optimal-layout-with-text-and-other-symbols,-vertically-align" fill="#000000" fill-rule="nonzero" font-family="Helvetica" font-size="13" font-weight="normal">
                    <tspan x="263" y="1989">For optimal layout with text and other symbols, vertically align</tspan>
                </text>
                <text id="symbols-with-the-adjacent-text." fill="#000000" fill-rule="nonzero" font-family="Helvetica" font-size="13" font-weight="normal">
                    <tspan x="263" y="2007">symbols with the adjacent text.</tspan>
                </text>
                <line x1="776" y1="1919" x2="776" y2="1933" id="Path" stroke="#00AEEF" stroke-width="0.5"></line>
                <g id="Group" transform="translate(778.490230, 1918.732400)" fill="#000000" fill-rule="nonzero">
                    <path d="M0.82032,14.42385 C1.33789,14.42385 1.5918,14.2285375 1.77735,13.681662 L3.03711,10.2344 L8.79887,10.2344 L10.05857,13.681662 C10.24417,14.2285375 10.49807,14.42385 11.00587,14.42385 C11.52347,14.42385 11.85547,14.11135 11.85547,13.623069 C11.85547,13.457053 11.82617,13.300803 11.74807,13.09572 L7.16797,0.8985 C6.94336,0.3028 6.54297,0 5.91797,0 C5.3125,0 4.90235,0.293 4.6875,0.8887 L0.10743,13.10549 C0.0293,13.310569 -4.4408921e-16,13.466819 -4.4408921e-16,13.632834 C-4.4408921e-16,14.121116 0.3125,14.42385 0.82032,14.42385 Z M3.51563,8.75002 L5.88868,2.1778 L5.9375,2.1778 L8.31057,8.75002 L3.51563,8.75002 Z" id="Shape"></path>
                </g>
                <line x1="793.197" y1="1919" x2="793.197" y2="1933" id="Path" stroke="#00AEEF" stroke-width="0.5"></line>
                <text id="Margins" fill="#000000" fill-rule="nonzero" font-family="Helvetica" font-size="13" font-weight="normal">
                    <tspan x="776" y="1953">Margins</tspan>
                </text>
                <text id="Leading-and-trailing-margins-on-the-left-and-right-side-of-each-symbol" fill="#000000" fill-rule="nonzero" font-family="Helvetica" font-size="13" font-weight="normal">
                    <tspan x="776" y="1971">Leading and trailing margins on the left and right side of each symbol</tspan>
                </text>
                <text id="can-be-adjusted-by-modifying-the-x-location-of-the-margin-guidelines." fill="#000000" fill-rule="nonzero" font-family="Helvetica" font-size="13" font-weight="normal">
                    <tspan x="776" y="1989">can be adjusted by modifying the x-location of the margin guidelines.</tspan>
                </text>
                <text id="Modifications-are-automatically-applied-proportionally-to-all" fill="#000000" fill-rule="nonzero" font-family="Helvetica" font-size="13" font-weight="normal">
                    <tspan x="776" y="2007">Modifications are automatically applied proportionally to all</tspan>
                </text>
                <text id="scales-and-weights." fill="#000000" fill-rule="nonzero" font-family="Helvetica" font-size="13" font-weight="normal">
                    <tspan x="776" y="2025">scales and weights.</tspan>
                </text>
                <g id="Group" transform="translate(1291.248126, 1914.517396)" fill="#000000" fill-rule="nonzero">
                    <path d="M0.593673634,20.347834 L2.29289363,22.056824 C3.15226363,22.925964 4.13859363,22.867374 5.06632363,21.841984 L15.7596736,10.054874 L14.7928736,9.07830404 L4.17765363,20.757994 C3.82609363,21.158384 3.49406363,21.256044 3.02531363,20.787294 L1.85343363,19.625184 C1.38468363,19.166198 1.49210363,18.824401 1.89249363,18.4630728 L13.3670736,7.66230404 L12.3905736,6.69550404 L0.798753634,17.584166 C-0.187576366,18.5021352 -0.265706366,19.478698 0.593673634,20.347834 Z M7.00968363,2.15450404 C6.58976363,2.56460404 6.56046363,3.14080404 6.79484363,3.53140404 C7.02921363,3.89280404 7.48820363,4.12710404 8.13277363,3.96110404 C9.59757363,3.61930404 11.1209736,3.56070404 12.5467736,4.49820404 L11.9608736,5.95330404 C11.6190736,6.78340404 11.7948736,7.36930404 12.3319736,7.91620404 L14.6268736,10.230654 C15.1151736,10.718934 15.5252736,10.738464 16.0916736,10.640804 L17.1561736,10.445494 L17.8202736,11.119324 L17.7811736,11.675964 C17.7420736,12.174014 17.8690736,12.554874 18.3573736,13.033384 L19.1190736,13.775574 C19.5975736,14.254084 20.2127736,14.283384 20.6815736,13.814634 L23.5916736,10.894714 C24.0604736,10.425964 24.0409736,9.83026404 23.5623736,9.35174404 L22.7909736,8.59002404 C22.3123736,8.11150404 21.9413736,7.95530404 21.4627736,7.99430404 L20.8866736,8.04310404 L20.2420736,7.40840404 L20.4862736,6.28530404 C20.6131736,5.71890404 20.4569736,5.27950404 19.8709736,4.69350404 L17.6737736,2.50600404 C14.3338736,-0.814295964 9.90027363,-0.736195964 7.00968363,2.15450404 Z M8.50387363,2.52560404 C10.9354736,0.748204036 14.2264736,1.05100404 16.4530736,3.27750404 L18.8846736,5.68960404 C19.1190736,5.92400404 19.1580736,6.10960404 19.0897736,6.45140404 L18.7674736,7.93570404 L20.2713736,9.42010404 L21.2577736,9.36151404 C21.5116736,9.35174404 21.5897736,9.37127404 21.7850736,9.56658404 L22.3612736,10.142764 L19.9198736,12.584164 L19.3436736,12.007994 C19.1483736,11.812684 19.1190736,11.734554 19.1288736,11.470884 L19.1971736,10.494324 L17.7030736,9.00994404 L16.1795736,9.26385404 C15.8573736,9.33221404 15.7108736,9.30291404 15.4666736,9.06854404 L13.4647736,7.06660404 C13.2108736,6.83220404 13.1815736,6.66620404 13.3377736,6.29510404 L14.2166736,4.20530404 C12.6541736,2.75020404 10.6229736,2.12520404 8.59167363,2.72090404 C8.43547363,2.75990404 8.37687363,2.63300404 8.50387363,2.52560404 Z" id="Shape"></path>
                </g>
                <text id="Exporting" fill="#000000" fill-rule="nonzero" font-family="Helvetica" font-size="13" font-weight="normal">
                    <tspan x="1289" y="1953">Exporting</tspan>
                </text>
                <text id="Symbols-should-be-outlined-when-exporting-to-ensure-the" fill="#000000" fill-rule="nonzero" font-family="Helvetica" font-size="13" font-weight="normal">
                    <tspan x="1289" y="1971">Symbols should be outlined when exporting to ensure the</tspan>
                </text>
                <text id="design-is-preserved-when-submitting-to-Xcode." fill="#000000" fill-rule="nonzero" font-family="Helvetica" font-size="13" font-weight="normal">
                    <tspan x="1289" y="1989">design is preserved when submitting to Xcode.</tspan>
                </text>
                <text id="template-version" fill="#000000" fill-rule="nonzero" font-family="Helvetica" font-size="13" font-weight="normal">
                    <tspan x="2952" y="1933">Template v.4.0</tspan>
                </text>
                <text id="Requires-Xcode-14-or-greater" fill="#000000" fill-rule="nonzero" font-family="Helvetica" font-size="13" font-weight="normal">
                    <tspan x="2865" y="1951">Requires Xcode 14 or greater</tspan>
                </text>
                <text id="descriptive-name" fill="#000000" fill-rule="nonzero" font-family="Helvetica" font-size="13" font-weight="normal">
                    <tspan x="2817" y="1969">Generated from square.text.square.fill</tspan>
                </text>
                <text id="Typeset-at-100-points" fill="#000000" fill-rule="nonzero" font-family="Helvetica" font-size="13" font-weight="normal">
                    <tspan x="2912" y="1987">Typeset at 100 points</tspan>
                </text>
                <text id="Small" fill="#000000" fill-rule="nonzero" font-family="Helvetica" font-size="13" font-weight="normal">
                    <tspan x="263" y="726">Small</tspan>
                </text>
                <text id="Medium" fill="#000000" fill-rule="nonzero" font-family="Helvetica" font-size="13" font-weight="normal">
                    <tspan x="263" y="1156">Medium</tspan>
                </text>
                <text id="Large" fill="#000000" fill-rule="nonzero" font-family="Helvetica" font-size="13" font-weight="normal">
                    <tspan x="263" y="1586">Large</tspan>
                </text>
            </g>
            <g id="Guides" transform="translate(263.000000, 600.785000)">
                <g id="H-reference" transform="translate(76.993654, 24.756000)" fill="#27AAE1" fill-rule="nonzero">
                    <path d="M0,70.459 L2.644096,70.459 L28.334446,3.3267 L29.036646,3.3267 L29.036646,0 L27.128946,0 L0,70.459 Z M10.694846,45.9791 L45.987846,45.9791 L45.237846,43.7305 L11.444846,43.7305 L10.694846,45.9791 Z M54.125946,70.459 L56.770046,70.459 L29.644546,0 L28.438946,0 L28.438946,3.3267 L54.125946,70.459 Z" id="Shape"></path>
                </g>
                <line x1="0" y1="95.215" x2="2773" y2="95.215" id="Baseline-S" stroke="#27AAE1" stroke-width="0.5"></line>
                <line x1="0" y1="24.756" x2="2773" y2="24.756" id="Capline-S" stroke="#27AAE1" stroke-width="0.5"></line>
                <g id="H-reference" transform="translate(76.993654, 454.756000)" fill="#27AAE1" fill-rule="nonzero">
                    <path d="M0,70.459 L2.644096,70.459 L28.334446,3.3267 L29.036646,3.3267 L29.036646,0 L27.128946,0 L0,70.459 Z M10.694846,45.9791 L45.987846,45.9791 L45.237846,43.7305 L11.444846,43.7305 L10.694846,45.9791 Z M54.125946,70.459 L56.770046,70.459 L29.644546,0 L28.438946,0 L28.438946,3.3267 L54.125946,70.459 Z" id="Shape"></path>
                </g>
                <line x1="0" y1="525.215" x2="2773" y2="525.215" id="Baseline-M" stroke="#27AAE1" stroke-width="0.5"></line>
                <line x1="0" y1="454.755" x2="2773" y2="454.755" id="Capline-M" stroke="#27AAE1" stroke-width="0.5"></line>
                <g id="H-reference" transform="translate(76.993654, 884.756000)" fill="#27AAE1" fill-rule="nonzero">
                    <path d="M0,70.459 L2.644096,70.459 L28.334446,3.3267 L29.036646,3.3267 L29.036646,0 L27.128946,0 L0,70.459 Z M10.694846,45.9791 L45.987846,45.9791 L45.237846,43.7305 L11.444846,43.7305 L10.694846,45.9791 Z M54.125946,70.459 L56.770046,70.459 L29.644546,0 L28.438946,0 L28.438946,3.3267 L54.125946,70.459 Z" id="Shape"></path>
                </g>
                <line x1="0" y1="955.215" x2="2773" y2="955.215" id="Baseline-L" stroke="#27AAE1" stroke-width="0.5"></line>
                <line x1="0" y1="884.755" x2="2773" y2="884.755" id="Capline-L" stroke="#27AAE1" stroke-width="0.5"></line>
                <line x1="253.35" y1="1.13686838e-13" x2="253.35" y2="119.336" id="left-margin-Ultralight-S" stroke="#00AEEF" stroke-width="0.5"></line>
                <line x1="340.073" y1="1.13686838e-13" x2="340.073" y2="119.336" id="right-margin-Ultralight-S" stroke="#00AEEF" stroke-width="0.5"></line>
                <line x1="1141.51" y1="1.13686838e-13" x2="1141.51" y2="119.336" id="left-margin-Regular-S" stroke="#00AEEF" stroke-width="0.5"></line>
                <line x1="1232.18" y1="1.13686838e-13" x2="1232.18" y2="119.336" id="right-margin-Regular-S" stroke="#00AEEF" stroke-width="0.5"></line>
                <line x1="2622.5" y1="1.13686838e-13" x2="2622.5" y2="119.336" id="left-margin-Black-S" stroke="#00AEEF" stroke-width="0.5"></line>
                <line x1="2718.3" y1="1.13686838e-13" x2="2718.3" y2="119.336" id="right-margin-Black-S" stroke="#00AEEF" stroke-width="0.5"></line>
            </g>
            <g id="Symbols" transform="translate(523.000000, 614.000000)" fill-rule="nonzero">
                <g id="Black-S" transform="translate(2363.000000, 0.000000)">
                    <path d="M18.7759225,94 L75.2240529,94 C87.0191644,94 94,87.0191931 94,75.2240431 L94,18.775846 C94,6.9807206 87.0191644,0 75.2240529,0 L18.7759225,0 C6.98081096,0 0,6.9807206 0,18.775846 L0,75.2240431 C0,87.0191931 6.98081096,94 18.7759225,94 Z" id="Path" fill="#007AFF"></path>
                    <path d="M54.4002163,66.5435356 L45.5559762,34.0738786 L36.5997837,66.5435356 C35.9031909,69.0061566 35.3496485,70.7730871 34.9391563,71.8443272 C34.5286641,72.9155673 33.8134127,73.8759894 32.7934018,74.7255937 C31.773391,75.5751979 30.417523,76 28.7257977,76 C27.3574905,76 26.2317469,75.7475814 25.3485668,75.2427441 C24.4653867,74.7379068 23.7501352,74.0237467 23.2028123,73.1002639 C22.6554895,72.176781 22.2076798,71.0809147 21.8593835,69.8126649 C21.5110871,68.5444151 21.2001082,67.3685136 20.9264467,66.2849604 L11.8209843,29.8258575 C11.2736614,27.7080035 11,26.0949868 11,24.9868074 C11,23.5831135 11.4975663,22.4010554 12.4926988,21.4406332 C13.4878313,20.4802111 14.7193077,20 16.1871282,20 C18.2022715,20 19.5581395,20.6402814 20.2547323,21.9208443 C20.951325,23.2014072 21.5608437,25.060686 22.0832883,27.4986807 L29.2482423,59.1187335 L37.2714981,29.530343 C37.8685776,27.2647318 38.4034613,25.5408971 38.8761493,24.3588391 C39.3488372,23.176781 40.1200649,22.1547933 41.1898323,21.292876 C42.2595998,20.4309587 43.7149811,20 45.5559762,20 C47.4218496,20 48.8710114,20.4494283 49.9034613,21.348285 C50.9359113,22.2471416 51.6511628,23.2260334 52.0492158,24.2849604 C52.4472688,25.3438874 52.9821525,27.0923483 53.653867,29.530343 L61.7517577,59.1187335 L68.9167117,27.4986807 C69.2650081,25.8487247 69.5946458,24.5558487 69.9056247,23.6200528 C70.2166036,22.6842568 70.7514873,21.8469657 71.5102758,21.1081794 C72.2690644,20.3693931 73.3699297,20 74.8128718,20 C76.255814,20 77.4810708,20.4740545 78.4886425,21.4221636 C79.4962142,22.3702726 80,23.5584872 80,24.9868074 C80,25.996482 79.7263386,27.6094987 79.1790157,29.8258575 L70.0735533,66.2849604 C69.4515955,68.7475814 68.9353705,70.5514512 68.5248783,71.6965699 C68.1143862,72.8416887 67.4177934,73.8452067 66.4351001,74.707124 C65.4524067,75.5690413 64.0654408,76 62.2742023,76 C60.582477,76 59.226609,75.5813544 58.2065982,74.7440633 C57.1865873,73.9067722 56.4775554,72.9648197 56.0795024,71.9182058 C55.6814494,70.8715919 55.1216874,69.0800352 54.4002163,66.5435356 Z" id="Shape" fill="#FFFFFF"></path>
                </g>
                <g id="Regular-S" transform="translate(885.000000, 5.000000)">
                    <path d="M14.7014505,84 L69.2985259,84 C79.1571281,84 84,79.1604922 84,69.4814411 L84,14.5185294 C84,4.83954915 79.1571281,0 69.2985259,0 L14.7014505,0 C4.90046776,0 0,4.83954915 0,14.5185294 L0,69.4814411 C0,79.1604922 4.90046776,84 14.7014505,84 Z" id="Path" fill="#007AFF"></path>
                    <path d="M48.6262845,60.3878628 L40.5511087,30.8172823 L32.3737155,60.3878628 C31.7376961,62.6306069 31.2322877,64.2397757 30.8574905,65.2153694 C30.4826933,66.1909631 29.8296376,67.0656332 28.8983234,67.8393799 C27.9670092,68.6131266 26.7290427,69 25.184424,69 C23.9351001,69 22.9072472,68.7701187 22.1008653,68.3103562 C21.2944835,67.8505937 20.6414278,67.2001979 20.1416982,66.3591689 C19.6419686,65.5181398 19.233099,64.5201187 18.9150892,63.3651055 C18.5970795,62.2100923 18.3131422,61.1391821 18.0632774,60.1523747 L9.74959438,26.9485488 C9.24986479,25.0197889 9,23.5507916 9,22.5415567 C9,21.2631926 9.45429962,20.1866755 10.3628989,19.3120053 C11.2714981,18.4373351 12.3958897,18 13.7360736,18 C15.575987,18 16.8139535,18.5831135 17.449973,19.7493404 C18.0859924,20.9155673 18.6425095,22.6088391 19.1195241,24.8291557 L25.6614386,53.6259894 L32.98702,26.6794195 C33.5321796,24.616095 34.0205516,23.0461741 34.4521363,21.969657 C34.8837209,20.8931398 35.5878853,19.9624011 36.5646295,19.1774406 C37.5413737,18.3924802 38.8702001,18 40.5511087,18 C42.2547323,18 43.5778799,18.4093008 44.5205516,19.2279024 C45.4632234,20.046504 46.1162791,20.9379947 46.4797188,21.9023747 C46.8431585,22.8667546 47.3315306,24.4591029 47.944835,26.6794195 L55.3385614,53.6259894 L61.8804759,24.8291557 C62.1984857,23.3265172 62.4994592,22.1490765 62.7833964,21.2968338 C63.0673337,20.444591 63.5557058,19.682058 64.2485127,19.0092348 C64.9413196,18.3364116 65.9464575,18 67.2639264,18 C68.5813953,18 69.7001082,18.4317282 70.6200649,19.2951847 C71.5400216,20.1586412 72,21.2407652 72,22.5415567 C72,23.4610818 71.7501352,24.9300792 71.2504056,26.9485488 L62.9367226,60.1523747 C62.368848,62.3951187 61.8975122,64.0379288 61.522715,65.0808047 C61.1479178,66.1236807 60.5118983,67.0375989 59.6146566,67.8225594 C58.7174148,68.6075198 57.4510546,69 55.815576,69 C54.2709573,69 53.0329908,68.6187335 52.1016766,67.8562005 C51.1703624,67.0936675 50.5229854,66.2358179 50.1595457,65.2826517 C49.796106,64.3294855 49.2850189,62.6978892 48.6262845,60.3878628 Z" id="Shape" fill="#FFFFFF"></path>
                </g>
                <g id="Ultralight-S" transform="translate(0.000000, 10.000000)">
                    <path d="M11.0122059,74 L62.9877721,74 C70.1829284,74 74,70.083188 74,62.9996592 L74,11.0002307 C74,3.91676799 70.1829284,0 62.9877721,0 L11.0122059,0 C3.82079409,0 0,3.8167729 0,11.0002307 L0,62.9996592 C0,70.1832051 3.82079409,74 11.0122059,74 Z" id="Path" fill="#007AFF"></path>
                    <path d="M43.3363981,51.5699208 L36.5429962,26.0580475 L29.6636019,51.5699208 C29.1285379,53.5048373 28.7033532,54.8931398 28.3880476,55.7348285 C28.072742,56.5765172 27.523346,57.3311346 26.7398594,57.9986807 C25.9563728,58.6662269 24.914909,59 23.6154678,59 C22.5644493,59 21.6997476,58.8016711 21.0213629,58.4050132 C20.3429782,58.0083553 19.7935821,57.4472296 19.3731747,56.7216359 C18.9527673,55.9960422 18.6087975,55.1350044 18.3412655,54.1385224 C18.0737335,53.1420405 17.8348657,52.2181179 17.624662,51.3667546 L10.6306111,22.7203166 C10.2102037,21.0562885 10,19.7889182 10,18.9182058 C10,17.8153034 10.3821886,16.8865435 11.1465657,16.1319261 C11.9109429,15.3773087 12.8568596,15 13.9843158,15 C15.5321796,15 16.5736434,15.5030783 17.1087074,16.5092348 C17.6437714,17.5153914 18.1119524,18.9762533 18.5132504,20.8918206 L24.0167658,45.7361478 L30.1795565,22.4881266 C30.6381828,20.7080035 31.0490355,19.353562 31.4121147,18.4248021 C31.7751938,17.4960422 32.3675861,16.6930519 33.1892915,16.0158311 C34.0109969,15.3386104 35.1288985,15 36.5429962,15 C37.9762034,15 39.0893276,15.3531223 39.8823688,16.0593668 C40.6754101,16.7656113 41.2248062,17.5347405 41.5305571,18.3667546 C41.8363079,19.1987687 42.2471606,20.5725594 42.7631152,22.4881266 L48.9832342,45.7361478 L54.4867496,20.8918206 C54.7542816,19.5954266 55.0074815,18.5795954 55.2463494,17.8443272 C55.4852172,17.1090589 55.8960699,16.4511873 56.4789075,15.8707124 C57.0617451,15.2902375 57.9073373,15 59.0156842,15 C60.124031,15 61.0651704,15.3724714 61.8391022,16.1174142 C62.6130341,16.8623571 63,17.7959543 63,18.9182058 C63,19.7115215 62.7897963,20.9788918 62.3693889,22.7203166 L55.375338,51.3667546 C54.8976023,53.3016711 54.5010817,54.7189974 54.1857761,55.6187335 C53.8704705,56.5184697 53.3354065,57.3069481 52.5805841,57.9841689 C51.8257617,58.6613896 50.760411,59 49.3845322,59 C48.085091,59 47.0436272,58.6710642 46.2601406,58.0131926 C45.476654,57.355321 44.9320353,56.6152155 44.6262845,55.792876 C44.3205336,54.9705365 43.8905715,53.5628848 43.3363981,51.5699208 Z" id="Shape" fill="#FFFFFF"></path>
                </g>
            </g>
        </g>
    </g>
</svg>